<svg xmlns="http://www.w3.org/2000/svg" width="36" height="35.1" viewBox="0 0 36 35.1"><path d="M29.625.45H6.375A6.37,6.37,0,0,0,0,6.825v22.35A6.37,6.37,0,0,0,6.375,35.55h23.25A6.37,6.37,0,0,0,36,29.175V6.825A6.37,6.37,0,0,0,29.625.45Zm4.86,28.14a5.435,5.435,0,0,1-5.43,5.46H6.945A5.454,5.454,0,0,1,1.5,28.6V7.395A5.454,5.454,0,0,1,6.945,1.95H29.04a5.445,5.445,0,0,1,5.445,5.445ZM14.235,16.875l4.2,8.07c.075.12.03.24-.09.24h-2.61a.294.294,0,0,1-.315-.195c-.96-1.98-1.935-3.96-2.94-6.09h-.03c-.9,2.01-1.89,4.125-2.85,6.1a.288.288,0,0,1-.27.165H6.855c-.15,0-.165-.12-.09-.21l4.11-7.83L6.9,9.21A.121.121,0,0,1,6.99,9H9.57a.236.236,0,0,1,.27.165c.945,1.98,1.9,4.02,2.805,6.015h.03c.87-1.98,1.83-4.035,2.76-6,.075-.12.12-.195.27-.195H18.12c.12,0,.165.09.09.21ZM19.17,19.32a5.867,5.867,0,0,1,6.015-6.225,6.652,6.652,0,0,1,.78.03V9.15a.15.15,0,0,1,.15-.15h2.37c.12,0,.15.045.15.12V22.89a10.684,10.684,0,0,0,.075,1.47c0,.09-.03.12-.12.165a8.935,8.935,0,0,1-3.84.87C21.495,25.41,19.17,23.4,19.17,19.32Zm6.8-3.84a2.269,2.269,0,0,0-.87-.15c-1.89,0-3.21,1.455-3.21,3.87,0,2.76,1.35,3.87,3.045,3.87a2.83,2.83,0,0,0,1.035-.165V15.48Z" transform="translate(0 -0.45)"/></svg>